<?xml version="1.0" encoding="utf-8"?>
<!-- Generator: Adobe Illustrator 24.0.2, SVG Export Plug-In . SVG Version: 6.00 Build 0)  -->
<svg version="1.1" id="Layer_1" xmlns="http://www.w3.org/2000/svg" xmlns:xlink="http://www.w3.org/1999/xlink" x="0px" y="0px"
	 viewBox="0 0 380.2 175.5" style="enable-background:new 0 0 380.2 175.5;" xml:space="preserve">
<style type="text/css">
	.st0{fill-rule:evenodd;clip-rule:evenodd;fill:#F43F5E;}
	.st1{fill:#334155;}
</style>
<g id="Logo">
	<path class="st0" d="M173.7,87.2c-2.7,3.8-4.3,6.9-4.9,9.2c-0.4,1.1-0.5,2.4-0.3,3.5c0.3,0.6,0.7,1.1,1.2,1.4
		c2.2,1.4,4.1-0.2,5.5-1.7c1.2-1.3,2.4-2.7,3.5-4c3.3-3.9,6.5-8,9.9-11.9c2.9-3.4,5.9-6.7,9.1-9.8c1.4-1.4,2.9-2.6,4.6-3.6
		c0,0.7,0,1.4,0,2.2c-0.3,2.8-0.8,5.5-1.5,8.2c-2.2,4.6-4,9.3-5.7,14.1c-0.9,2.7-2.3,7.2,0.8,9.1c1.6,0.9,3.3,0.5,4.7-0.4
		c1.1-0.8,2.2-1.6,3.2-2.6c3.1-3.2,6-6.7,8.7-10.3v-0.1v-0.1c1.4-2,2.9-3.8,4.5-5.6c0.3,1.9,0.6,3.8,0.7,5.7c0,1.6,0.5,3.1,1.4,4.4
		c0.3,0.4,0.7,0.7,1,1c2.1,1.6,4.8,1.3,7.2,0.5c3.4-1.5,7.6-4.8,12.6-9.9c-25.9,17.1-12.1-5.9-20.9-8.6c-2.4-0.7-4.6,0.7-6.2,2.3
		c-2,2-3.8,4.2-5.4,6.6c-0.9,1.1-3.2,4-5.5,6.7c1.3-3.5,2.9-7,4.4-10.5l0.1-0.3l0.1-0.3c0.9-3.5,1.8-7.7,1.8-11.3
		c0-2.6-0.6-5.6-3.2-6.9c-3.7-1.8-8.1,1.8-10.7,4.2c-3.7,3.4-7.1,7.1-10.3,11c4.7-8.6,9.5-17.1,14.3-25.6c0.7-3.6-2.5-5.4-5.6-3
		c-5.7,8.9-12,17.5-18.8,25.6l-3.3,3.6l0,0l-1.3,1.4l0,0c-1.4,1.6-2.8,3-4.2,4.3c-0.1-0.1-0.5,0.7-0.7,0.7c-5,4.5-8.1,10.5-21,9.5
		c-1.5-0.1-3-0.2-4.4-0.5c-11.5-2.7-18.7-14.2-16-25.7c2.2-9.5,10.6-16.3,20.4-16.5c1.1,0,2.1,0.1,3.2,0.2c2.7,0.4,5.4,1.4,7.8,2.8
		c-0.1-0.9-0.1-1.7-0.1-2.6c0-16.4,13.3-29.7,29.7-29.7c13.7,0,25.6,9.3,28.8,22.6c2.2-1.3,4.7-2.2,7.2-2.8c1.8-0.4,3.7-0.6,5.5-0.6
		c14.3,0,25.8,11.6,25.9,25.8c0,1-0.1,2-0.2,3c-0.3,2.7-1.1,5.4-2.2,7.9c-3.9,9.5-11.8,17-23.7,22.6c-2,0.9-4,1.8-6.2,2.6
		c20.5-2.1,35.8-11,39.7-32.2c0.2-1.3,0.2-2.6,0.2-3.9c0-18.5-15-33.5-33.6-33.5c-2.8,0-5.5,0.3-8.2,1C207.9,18,185.4,10.7,167,20.1
		c-10,5.1-17.2,14.5-19.6,25.6c-15.9-2.2-30.6,8.9-32.8,24.8c-2,14.6,7.2,28.4,21.4,32.1c15.6,4.1,26.1-3,35.9-13.8L173.7,87.2
		L173.7,87.2L173.7,87.2z"/>
	<g>
		<path class="st1" d="M49.4,146.8L49.4,146.8L39.8,133v21H37v-26h3l9.5,14.1L59,128h3v25.9h-3v-21L49.4,146.8z"/>
		<path class="st1" d="M88.9,128v25.9H86V128H88.9z"/>
		<path class="st1" d="M132.2,128h2.9v25.9h-2.4L116,132.7V154h-2.8v-26h2.7l16.3,20.8V128z"/>
		<path class="st1" d="M177.8,130.6H162v8.8h14.1v2.6h-14.2v9.1h16v2.7H159V128h18.7L177.8,130.6z"/>
		<path class="st1" d="M203.6,128v25.9h-2.9V128H203.6z"/>
		<path class="st1" d="M245.7,153.9l-7.5-10.1h-7.4v10.1h-2.9V128H239c5.7,0,9.4,3.1,9.4,7.7c0,4.3-3,6.8-7,7.6l8,10.6L245.7,153.9z
			 M238.8,130.7h-8v10.5h8c3.9,0,6.7-2,6.7-5.4C245.4,132.6,242.9,130.7,238.8,130.7L238.8,130.7z"/>
		<path class="st1" d="M283.3,154.3c-7.9,0-13.2-6.2-13.2-13.4s5.4-13.4,13.3-13.4s13.2,6.2,13.2,13.4S291.1,154.3,283.3,154.3z
			 M283.3,130.2c-5.9,0-10.1,4.7-10.1,10.7s4.3,10.7,10.3,10.7s10.1-4.7,10.1-10.7S289.2,130.2,283.3,130.2z"/>
		<path class="st1" d="M328.4,139.5c5.8,1.3,8.4,3.4,8.4,7.4c0,4.5-3.7,7.4-8.8,7.4c-3.9,0-7.7-1.4-10.6-4.1l1.8-2.1
			c2.7,2.4,5.3,3.7,8.9,3.7s5.8-1.8,5.8-4.4c0-2.4-1.3-3.8-6.7-5c-6-1.3-8.7-3.2-8.7-7.5c0-4.1,3.6-7.1,8.5-7.1
			c3.3-0.1,6.6,1,9.1,3.2l-1.7,2.3c-2.1-1.8-4.7-2.8-7.5-2.8c-3.4,0-5.5,1.9-5.5,4.2C321.4,136.8,322.7,138.3,328.4,139.5z"/>
	</g>
</g>
</svg>
