<?xml version="1.0" encoding="utf-8"?>
<!-- Generator: Adobe Illustrator 24.0.2, SVG Export Plug-In . SVG Version: 6.00 Build 0)  -->
<svg version="1.1" id="Layer_1" xmlns="http://www.w3.org/2000/svg" xmlns:xlink="http://www.w3.org/1999/xlink" x="0px" y="0px"
	 viewBox="0 0 200 200" style="enable-background:new 0 0 200 200;" xml:space="preserve">
<style type="text/css">
	.st0{fill-rule:evenodd;clip-rule:evenodd;fill:#F43F5E;}
</style>
<g id="Logo">
	<path class="st0" d="M84.7,135.4c-3.4,4.8-5.4,8.7-6.3,11.7c-0.5,1.4-0.6,3-0.3,4.5c0.3,0.7,0.9,1.3,1.6,1.7c2.8,1.7,5.2-0.3,7-2.2
		c1.6-1.6,3-3.4,4.5-5.1c4.2-5,8.3-10.1,12.5-15.1c3.6-4.4,7.5-8.5,11.5-12.4c1.8-1.7,3.7-3.3,5.8-4.6c0.1,0.9,0.1,1.8,0,2.7
		c-0.4,3.5-1,7-1.9,10.4c-2.7,5.8-5.1,11.8-7.2,17.9c-1.1,3.4-2.9,9.2,1,11.5c2,1.2,4.2,0.6,6-0.5c1.4-1,2.8-2.1,4-3.3
		c4-4.1,7.7-8.4,11.1-13l0.1-0.1v-0.1c1.7-2.5,3.6-4.9,5.7-7.1c0.4,2.4,0.7,4.8,0.9,7.2c0,2,0.6,4,1.7,5.6c0.4,0.5,0.8,0.9,1.3,1.3
		c2.7,2,6.1,1.7,9.1,0.6c4.3-1.9,9.7-6.1,16-12.6c-32.9,21.6-15.3-7.5-26.4-10.9c-3-0.9-5.8,0.8-7.9,2.9c-2.5,2.6-4.8,5.3-6.8,8.3
		c-1.1,1.4-4,5.1-6.9,8.5c1.7-4.5,3.6-8.9,5.6-13.3l0.1-0.3l0.1-0.3c1.1-4.4,2.3-9.7,2.3-14.3c0-3.3-0.8-7.1-4.1-8.7
		c-4.8-2.3-10.3,2.3-13.6,5.3c-4.7,4.4-9,9-13.1,13.9c5.9-10.9,12-21.7,18.1-32.4c0.8-4.6-3.2-6.8-7.1-3.8
		c-7.3,11.3-15.2,22.1-23.8,32.5l-4.2,4.5l0,0c-0.5,0.6-1.1,1.2-1.6,1.8l0,0c-1.8,2-3.6,3.8-5.3,5.5c-0.2-0.1-0.7,0.9-0.8,0.9
		c-6.3,5.8-10.2,13.3-26.7,12c-1.9-0.1-3.8-0.3-5.6-0.6c-14.7-3.2-24-17.7-20.8-32.3C22.9,101,33.9,92.1,46.6,92
		c1.4,0,2.7,0.1,4.1,0.3c3.5,0.5,6.8,1.7,9.8,3.5c-0.1-1.1-0.2-2.2-0.2-3.3c0-20.8,16.9-37.7,37.7-37.7c13.8,0,26.4,7.5,33,19.6
		c1.6,2.9,2.8,5.9,3.6,9.1c2.8-1.6,5.9-2.8,9.1-3.5c2.3-0.5,4.6-0.7,7-0.7c18.1,0,32.8,14.7,32.8,32.8c0,1.3-0.1,2.5-0.2,3.8
		c-0.4,3.5-1.4,6.8-2.8,10c-4.9,12-14.9,21.6-30,28.7c-2.5,1.2-5.1,2.2-7.8,3.3c26-2.6,45.4-14,50.3-40.8c0.2-1.7,0.3-3.3,0.3-5
		c0-23.5-19.1-42.5-42.6-42.5l0,0c-3.5,0-7,0.5-10.4,1.3c-11.9-23.3-40.4-32.5-63.7-20.6c-12.7,6.5-21.9,18.4-24.8,32.4
		C31.5,79.9,12.9,94,10.1,114.1c-2.6,18.5,9.1,36,27.1,40.7c19.8,5.1,33.1-3.8,45.5-17.5l1.8-2L84.7,135.4L84.7,135.4z"/>
</g>
</svg>
