<svg xmlns="http://www.w3.org/2000/svg" viewBox="0 0 200 200">
  <defs>
    <style>
      .cls-1 {
        fill: #131e37;
      }
      .cls-2 {
        fill: #f32752;
        fill-rule: evenodd;
      }
    </style>
  </defs>
  <g id="Logo" data-name="Logo">
    <rect class="cls-1" x="0.5" y="0.5" width="200" height="200" />>
    <path
      class="cls-2"
      d="M84.65,135.44c-3.43,4.8-5.41,8.7-6.26,11.68a9.13,9.13,0,0,0-.35,4.49,4,4,0,0,0,1.56,1.74c2.75,1.72,5.23-.29,7-2.17,1.56-1.62,3-3.39,4.48-5.12,4.2-5,8.29-10.12,12.54-15.1a159.83,159.83,0,0,1,11.54-12.45,38.52,38.52,0,0,1,5.81-4.62,20.73,20.73,0,0,1,0,2.73A65.52,65.52,0,0,1,119.05,127a176.56,176.56,0,0,0-7.18,17.86c-1.09,3.4-2.88,9.16,1,11.5,2,1.19,4.17.64,6-.52a24.62,24.62,0,0,0,4-3.34,141.44,141.44,0,0,0,11.09-13l.06-.07,0-.07a68.63,68.63,0,0,1,5.7-7.12,58.43,58.43,0,0,1,.85,7.23,9.75,9.75,0,0,0,1.74,5.65,7,7,0,0,0,1.33,1.33c2.69,2,6.08,1.66,9.14.59q6.48-2.87,16-12.58c-32.88,21.59-15.26-7.5-26.41-10.92-3-.93-5.79.85-7.89,2.86a59,59,0,0,0-6.79,8.32c-1.1,1.39-4,5.11-6.93,8.46,1.68-4.48,3.63-8.93,5.58-13.27l.14-.32.09-.33c1.11-4.45,2.31-9.74,2.32-14.34,0-3.34-.75-7.14-4.09-8.73-4.75-2.26-10.3,2.32-13.62,5.29A146.32,146.32,0,0,0,98.1,125.4c5.93-10.86,12-21.65,18.08-32.42.84-4.56-3.21-6.84-7.13-3.79a330.21,330.21,0,0,1-23.81,32.47l-4.15,4.53h0q-.8.93-1.59,1.8h0c-1.79,2-3.57,3.79-5.35,5.46-.15-.09-.69.94-.84.85-6.33,5.75-10.23,13.33-26.69,12a44.55,44.55,0,0,1-5.64-.58,27.17,27.17,0,0,1,5.64-53.72,27.53,27.53,0,0,1,4.06.3,27.21,27.21,0,0,1,9.84,3.52c-.1-1.09-.15-2.2-.15-3.31a37.66,37.66,0,0,1,70.68-18.11,37.07,37.07,0,0,1,3.55,9.1,33.11,33.11,0,0,1,9.11-3.47,33.62,33.62,0,0,1,7-.74,32.8,32.8,0,0,1,32.8,32.8,30.16,30.16,0,0,1-.22,3.8,32.33,32.33,0,0,1-2.83,10q-7.35,18-30,28.68c-2.46,1.16-5.07,2.25-7.81,3.28,26-2.62,45.45-14,50.29-40.79a41.79,41.79,0,0,0,.29-5,42.54,42.54,0,0,0-42.59-42.49,43,43,0,0,0-10.41,1.31A47.36,47.36,0,0,0,51.71,82.71a36.86,36.86,0,0,0-14.48,72.15C57,160,70.35,151.08,82.77,137.39l1.78-2,.1.08Z"
    />
  </g>
</svg>
