<svg
  id="Logo"
  data-name="Logo"
  xmlns="http://www.w3.org/2000/svg"
  viewBox="0 0 799.46 134.96"
>
  <defs>
    <style>
      .cls-1 {
        fill: #f32752;
        fill-rule: evenodd;
      }
      .cls-2 {
        isolation: isolate;
        font-size: 67.89px;
        fill: #fff;
        font-family: Gotham-Book, Gotham Book;
        letter-spacing: 0.45em;
      }
      .cls-3 {
        letter-spacing: 0.44em;
      }
    </style>
  </defs>
  <path
    class="cls-1"
    d="M88.49,101.09c-3.43,4.8-5.41,8.7-6.26,11.68a9.13,9.13,0,0,0-.35,4.49A4,4,0,0,0,83.44,119c2.75,1.72,5.23-.29,7-2.17,1.56-1.62,3-3.39,4.48-5.12,4.2-5,8.29-10.12,12.54-15.1A157.91,157.91,0,0,1,119,84.16a38.65,38.65,0,0,1,5.81-4.62,20.73,20.73,0,0,1,0,2.73,67.86,67.86,0,0,1-1.92,10.39,174.25,174.25,0,0,0-7.18,17.86c-1.09,3.4-2.88,9.16,1,11.5,2,1.19,4.17.64,6-.52a24.62,24.62,0,0,0,4-3.34,143,143,0,0,0,11.09-13l.06-.07,0-.07a69.7,69.7,0,0,1,5.7-7.12,60.65,60.65,0,0,1,.85,7.23,9.75,9.75,0,0,0,1.74,5.65,7,7,0,0,0,1.33,1.33c2.69,2,6.08,1.66,9.14.59q6.47-2.86,16-12.58c-32.88,21.59-15.26-7.5-26.41-10.92-3-.93-5.79.85-7.89,2.86a58.31,58.31,0,0,0-6.79,8.32c-1.1,1.39-4,5.11-6.93,8.46,1.68-4.48,3.63-8.93,5.58-13.27l.14-.32.09-.33c1.11-4.45,2.31-9.74,2.32-14.34,0-3.34-.75-7.14-4.09-8.73-4.75-2.26-10.3,2.32-13.62,5.29a146.24,146.24,0,0,0-13.13,13.91c5.93-10.86,12-21.65,18.08-32.42.84-4.56-3.21-6.84-7.13-3.79A330.21,330.21,0,0,1,89.08,87.31l-4.15,4.53h0q-.8.93-1.59,1.8h0c-1.79,2-3.57,3.79-5.35,5.46-.15-.09-.69.94-.84.85-6.33,5.75-10.23,13.33-26.69,12a44.55,44.55,0,0,1-5.64-.58A27.17,27.17,0,0,1,50.46,57.7a27.53,27.53,0,0,1,4.06.3,27.21,27.21,0,0,1,9.84,3.52c-.1-1.09-.15-2.2-.15-3.31A37.66,37.66,0,0,1,134.89,40.1a37.07,37.07,0,0,1,3.55,9.1,33.11,33.11,0,0,1,9.11-3.47,33.62,33.62,0,0,1,7-.74,32.82,32.82,0,0,1,32.8,32.8,32.68,32.68,0,0,1-3,13.8q-7.37,18-30,28.68-3.7,1.74-7.81,3.28c26-2.62,45.45-14,50.29-40.79a44,44,0,0,0,.29-5,42.55,42.55,0,0,0-42.59-42.49,43,43,0,0,0-10.41,1.31A47.36,47.36,0,0,0,55.55,48.36a36.86,36.86,0,0,0-14.48,72.15c19.73,5.18,33.12-3.78,45.54-17.47l1.78-2,.1.08Z"
  />
  <text class="cls-2" transform="translate(228.5 97.96)">
    MINEIR
    <tspan class="cls-3" x="429.54" y="0">O</tspan>
    <tspan x="517.39" y="0">S</tspan>
  </text>
</svg>
