<svg width="846" height="404" viewBox="0 0 846 404" fill="none" xmlns="http://www.w3.org/2000/svg">
<g style="mix-blend-mode:multiply">
<g opacity="0.7" filter="url(#filter0_f_0_5)">
<path d="M191.029 84.1964C203.066 84.1964 212.823 74.3106 212.823 62.1159C212.823 49.9213 203.066 40.0355 191.029 40.0355C178.992 40.0355 169.234 49.9213 169.234 62.1159C169.234 74.3106 178.992 84.1964 191.029 84.1964Z" fill="#A050D9"/>
</g>
<path d="M673.403 342.767C680.816 342.767 686.826 336.678 686.826 329.168C686.826 321.657 680.816 315.569 673.403 315.569C665.99 315.569 659.98 321.657 659.98 329.168C659.98 336.678 665.99 342.767 673.403 342.767Z" fill="#DD5D72"/>
<path d="M191.029 84.1964C203.066 84.1964 212.823 74.3106 212.823 62.1159C212.823 49.9213 203.066 40.0355 191.029 40.0355C178.992 40.0355 169.234 49.9213 169.234 62.1159C169.234 74.3106 178.992 84.1964 191.029 84.1964Z" fill="#A050D9"/>
<path d="M0 258.679H23.8708V181.889C23.8708 168.676 34.2066 158.204 47.0033 158.204C60.0461 158.204 70.628 168.676 70.628 181.889V258.679H94.4988V181.889C94.4988 168.676 104.835 158.204 117.631 158.204C130.92 158.204 141.256 168.676 141.256 181.889V258.679H165.127V181.889C165.127 155.462 143.963 134.021 117.631 134.021C103.604 134.021 91.0535 140.254 82.4404 149.977C74.0733 140.254 61.2766 134.021 47.0033 134.021C20.9177 134.021 0 155.462 0 181.889V258.679Z" fill="#171415"/>
<path d="M203.882 133.772H180.011V258.679H203.882V133.772Z" fill="#171415"/>
<path d="M316.165 258.679H340.036V195.602C340.036 161.695 312.966 134.021 279.497 134.021C245.783 134.021 218.713 161.695 218.713 195.602V258.679H242.584V195.602C242.584 174.909 258.826 158.204 279.497 158.204C299.923 158.204 316.165 174.909 316.165 195.602V258.679Z" fill="#171415"/>
<path d="M374.433 185.629C387.475 147.733 438.662 147.484 449.49 185.629H374.433ZM472.869 209.314C473.853 205.076 474.345 200.837 474.345 196.35C474.345 161.446 446.291 133.024 412.085 133.024C377.386 133.024 349.824 161.446 349.824 196.35C349.824 231.254 377.386 259.426 412.085 259.426C438.17 259.426 460.81 242.722 469.67 219.536H443.338C424.635 245.215 385.507 237.985 375.417 209.314H472.869Z" fill="#171415"/>
<path d="M512.966 133.772H489.095V258.679H512.966V133.772Z" fill="#171415"/>
<path d="M527.797 258.679H551.668V187.624C551.668 171.418 564.711 158.204 580.707 158.204H605.07V134.021H580.707C551.422 134.021 527.797 158.204 527.797 187.624V258.679Z" fill="#171415"/>
<path d="M712.009 196.35C712.009 219.287 694.291 237.985 671.897 237.985C649.256 237.985 631.784 219.287 631.784 196.35C631.784 173.662 649.256 154.963 671.897 154.963C694.291 154.963 712.009 173.662 712.009 196.35ZM733.665 196.35C733.665 161.695 706.103 133.024 671.897 133.024C637.444 133.024 609.882 161.695 609.882 196.35C609.882 231.254 637.444 259.925 671.897 259.925C706.103 259.925 733.665 231.254 733.665 196.35Z" fill="#171415"/>
<path d="M767.989 216.794H743.626V219.037C743.626 242.473 768.974 260.174 794.813 260.174C821.145 260.174 846 244.218 846 219.037C846 170.172 767.989 195.103 767.989 173.163C767.989 165.684 776.849 155.961 794.813 155.961C810.809 155.961 821.637 167.678 821.637 173.163V175.906H846V173.163C846 147.484 818.192 132.525 794.813 132.525C769.712 132.525 743.626 147.235 743.626 173.163C743.626 221.78 821.637 199.84 821.637 219.037C821.637 226.517 813.516 236.489 794.813 236.489C777.341 236.489 767.989 225.021 767.989 219.037V216.794Z" fill="#171415"/>
<path d="M288.522 274.425C321.973 289.53 358.79 303.424 397.818 315.283C569.804 367.544 701.311 349.038 714.097 288.106C715.508 281.383 715.192 274.284 713.282 266.905M537.541 128.516C508.44 116.1 477.069 104.639 444.122 94.6272C272.136 42.366 122.348 49.3955 109.561 110.328C108.937 113.304 107.56 119.905 107.047 122.503" stroke="url(#paint0_linear_0_5)" stroke-width="6.05" stroke-linecap="round"/>
</g>
<defs>
<filter id="filter0_f_0_5" x="149.234" y="20.0355" width="83.5896" height="84.1608" filterUnits="userSpaceOnUse" color-interpolation-filters="sRGB">
<feFlood flood-opacity="0" result="BackgroundImageFix"/>
<feBlend mode="normal" in="SourceGraphic" in2="BackgroundImageFix" result="shape"/>
<feGaussianBlur stdDeviation="10" result="effect1_foregroundBlur_0_5"/>
</filter>
<linearGradient id="paint0_linear_0_5" x1="607.977" y1="345.643" x2="423.743" y2="-36.6341" gradientUnits="userSpaceOnUse">
<stop stop-color="#DC5C72"/>
<stop offset="1" stop-color="#9F4FDA"/>
</linearGradient>
</defs>
</svg>
