<?xml version="1.0" encoding="utf-8"?>
<!-- Generator: Adobe Illustrator 24.0.2, SVG Export Plug-In . SVG Version: 6.00 Build 0)  -->
<svg version="1.1" id="Layer_1" xmlns="http://www.w3.org/2000/svg" xmlns:xlink="http://www.w3.org/1999/xlink" x="0px" y="0px"
	 viewBox="0 0 549.9 175.5" style="enable-background:new 0 0 549.9 175.5;" xml:space="preserve">
<style type="text/css">
	.st0{fill-rule:evenodd;clip-rule:evenodd;fill:#F43F5E;}
	.st1{fill:#334155;}
</style>
<g id="Logo">
	<path class="st0" d="M258.1,90.3c-3.4,4.8-5.4,8.7-6.3,11.7c-0.5,1.4-0.6,3-0.4,4.5c0.3,0.7,0.9,1.3,1.6,1.7c2.8,1.7,5.2-0.3,7-2.2
		c1.6-1.6,3-3.4,4.5-5.1c4.2-5,8.3-10.1,12.5-15.1c3.6-4.4,7.5-8.5,11.5-12.4c1.8-1.7,3.7-3.3,5.8-4.6c0.1,0.9,0.1,1.8,0,2.7
		c-0.4,3.5-1,7-1.9,10.4c-2.7,5.8-5.1,11.8-7.2,17.9c-1.1,3.4-2.9,9.2,1,11.5c2,1.2,4.2,0.6,6-0.5c1.4-1,2.8-2.1,4-3.3
		c3.9-4.1,7.7-8.5,11.1-13l0.1-0.1v-0.1c1.7-2.5,3.6-4.9,5.7-7.1c0.4,2.4,0.7,4.8,0.9,7.2c0,2,0.6,4,1.7,5.7c0.4,0.5,0.8,1,1.3,1.3
		c2.7,2,6.1,1.7,9.1,0.6c4.3-1.9,9.6-6.1,16-12.6c-32.8,21.6-15.2-7.5-26.4-10.9c-3-0.9-5.8,0.8-7.9,2.9c-2.5,2.6-4.8,5.3-6.8,8.3
		c-1.1,1.4-4,5.1-6.9,8.5c1.7-4.5,3.6-8.9,5.6-13.3l0.1-0.3l0.1-0.3c1.1-4.4,2.3-9.7,2.3-14.3c0-3.3-0.8-7.1-4.1-8.7
		c-4.8-2.3-10.3,2.3-13.6,5.3c-4.7,4.3-9.1,9-13.1,13.9c5.9-10.9,12-21.7,18.1-32.4c0.8-4.6-3.2-6.8-7.1-3.8
		c-7.3,11.3-15.2,22.1-23.8,32.5l-4.1,4.5l0,0l-1.6,1.8l0,0c-1.8,2-3.6,3.8-5.4,5.5c-0.1-0.1-0.7,0.9-0.8,0.8
		c-6.3,5.8-10.2,13.3-26.7,12c-1.9-0.1-3.8-0.3-5.6-0.6c-14.6-3.4-23.7-18-20.3-32.6c2.8-12.1,13.5-20.7,25.9-21
		c1.4,0,2.7,0.1,4.1,0.3c3.5,0.5,6.8,1.7,9.9,3.5c-0.1-1.1-0.1-2.2-0.1-3.3c0-20.8,16.9-37.7,37.7-37.7c17.3,0,32.4,11.8,36.6,28.7
		c2.8-1.6,5.9-2.8,9.1-3.5c2.3-0.5,4.6-0.7,7-0.7c18.1,0,32.8,14.6,32.8,32.7c0,1.3-0.1,2.5-0.2,3.8c-0.4,3.5-1.4,6.8-2.8,10
		c-4.9,12-14.9,21.6-30,28.7c-2.5,1.2-5.1,2.3-7.8,3.3c26-2.6,45.5-14,50.3-40.8c0.2-1.7,0.3-3.3,0.3-5c0-23.5-19.1-42.5-42.6-42.5
		c-3.5,0-7,0.4-10.4,1.3C301.8,2.5,273.3-6.7,250,5.2c-12.7,6.5-21.9,18.4-24.8,32.4C205,34.8,186.4,48.8,183.6,69
		c-2.6,18.5,9.1,36,27.1,40.7c19.7,5.2,33.1-3.8,45.5-17.5L258.1,90.3L258.1,90.3L258.1,90.3z"/>
	<g>
		<path class="st1" d="M22.8,161.6h-0.3L5.2,136.2v38.4H0v-47.5h5.4l17.3,25.9L40,127.1h5.4v47.5h-5.4v-38.5L22.8,161.6z"/>
		<path class="st1" d="M95.2,127.1v47.5h-5.4v-47.5H95.2z"/>
		<path class="st1" d="M174.6,127.1h5.2v47.5h-4.3l-30.7-39v39h-5.2v-47.5h5l29.9,38.1L174.6,127.1z"/>
		<path class="st1" d="M258.1,132h-29v16.2H255v4.9h-25.9v16.6h29.3v4.9h-34.7v-47.5h34.3V132z"/>
		<path class="st1" d="M305.6,127.1v47.5h-5.4v-47.5H305.6z"/>
		<path class="st1" d="M382.7,174.7l-13.8-18.5h-13.6v18.5H350v-47.5h20.4c10.5,0,17.2,5.6,17.2,14.2c0,7.9-5.4,12.6-12.9,13.9
			l14.6,19.4H382.7z M370,132.1h-14.7v19.3h14.6c7.1,0,12.2-3.7,12.2-9.9C382.1,135.6,377.7,132.1,370,132.1z"/>
		<path class="st1" d="M451.6,175.5c-14.5,0-24.2-11.3-24.2-24.5s9.8-24.6,24.3-24.6s24.2,11.3,24.2,24.5S466.1,175.5,451.6,175.5z
			 M451.6,131.3c-10.9,0-18.6,8.7-18.6,19.6s7.9,19.7,18.7,19.7s18.6-8.7,18.6-19.6S462.5,131.3,451.6,131.3z"/>
		<path class="st1" d="M534.4,148.3c10.6,2.3,15.5,6.2,15.5,13.5c0,8.2-6.8,13.5-16.2,13.5c-7.2,0.1-14.2-2.6-19.4-7.6l3.3-3.9
			c5,4.5,9.7,6.7,16.3,6.7c6.4,0,10.6-3.3,10.6-8.1c0-4.5-2.4-7-12.3-9.1c-10.9-2.4-16-5.9-16-13.8c0-7.6,6.6-13,15.6-13
			c6.1-0.2,12,1.9,16.7,5.8l-3.1,4.1c-3.8-3.3-8.7-5.2-13.7-5.2c-6.2,0-10.1,3.4-10.1,7.7C521.5,143.6,524,146.1,534.4,148.3z"/>
	</g>
</g>
</svg>
