<svg width="807" height="385" viewBox="0 0 807 385" fill="none" xmlns="http://www.w3.org/2000/svg">
<path d="M182.222 80.2366C193.704 80.2366 203.012 70.8158 203.012 59.1946C203.012 47.5735 193.704 38.1527 182.222 38.1527C170.74 38.1527 161.432 47.5735 161.432 59.1946C161.432 70.8158 170.74 80.2366 182.222 80.2366Z" fill="#5B50DA"/>
<path d="M642.36 326.646C649.431 326.646 655.164 320.844 655.164 313.687C655.164 306.53 649.431 300.728 642.36 300.728C635.288 300.728 629.555 306.53 629.555 313.687C629.555 320.844 635.288 326.646 642.36 326.646Z" fill="#DD5D72"/>
<path d="M182.222 80.2366C193.704 80.2366 203.012 70.8158 203.012 59.1946C203.012 47.5735 193.704 38.1527 182.222 38.1527C170.74 38.1527 161.432 47.5735 161.432 59.1946C161.432 70.8158 170.74 80.2366 182.222 80.2366Z" fill="#A050D9"/>
<path d="M0 246.513H22.7704V173.335C22.7704 160.743 32.6297 150.764 44.8365 150.764C57.278 150.764 67.3721 160.743 67.3721 173.335V246.513H90.1425V173.335C90.1425 160.743 100.002 150.764 112.209 150.764C124.885 150.764 134.744 160.743 134.744 173.335V246.513H157.515V173.335C157.515 148.151 137.326 127.718 112.209 127.718C98.8281 127.718 86.856 133.658 78.6399 142.924C70.6586 133.658 58.4518 127.718 44.8365 127.718C19.9534 127.718 0 148.151 0 173.335V246.513Z" fill="white"/>
<path d="M194.483 127.48H171.713V246.513H194.483V127.48Z" fill="white"/>
<path d="M301.59 246.513H324.36V186.403C324.36 154.09 298.538 127.718 266.613 127.718C234.453 127.718 208.631 154.09 208.631 186.403V246.513H231.401V186.403C231.401 166.683 246.894 150.764 266.613 150.764C286.097 150.764 301.59 166.683 301.59 186.403V246.513Z" fill="white"/>
<path d="M357.172 176.899C369.613 140.785 418.44 140.548 428.769 176.899H357.172ZM451.07 199.47C452.009 195.431 452.478 191.392 452.478 187.115C452.478 153.853 425.717 126.768 393.088 126.768C359.989 126.768 333.697 153.853 333.697 187.115C333.697 220.378 359.989 247.226 393.088 247.226C417.971 247.226 439.567 231.307 448.018 209.211H422.9C405.06 233.683 367.735 226.793 358.111 199.47H451.07Z" fill="white"/>
<path d="M489.319 127.48H466.549V246.513H489.319V127.48Z" fill="white"/>
<path d="M503.466 246.513H526.236V178.8C526.236 163.356 538.678 150.764 553.936 150.764H577.176V127.718H553.936C526.002 127.718 503.466 150.764 503.466 178.8V246.513Z" fill="white"/>
<path d="M679.186 187.115C679.186 208.974 662.285 226.793 640.923 226.793C619.326 226.793 602.659 208.974 602.659 187.115C602.659 165.495 619.326 147.675 640.923 147.675C662.285 147.675 679.186 165.495 679.186 187.115ZM699.844 187.115C699.844 154.09 673.552 126.768 640.923 126.768C608.058 126.768 581.767 154.09 581.767 187.115C581.767 220.378 608.058 247.701 640.923 247.701C673.552 247.701 699.844 220.378 699.844 187.115Z" fill="white"/>
<path d="M732.586 206.598H709.346V208.736C709.346 231.07 733.524 247.938 758.173 247.938C783.291 247.938 807 232.733 807 208.736C807 162.168 732.586 185.927 732.586 165.02C732.586 157.892 741.036 148.626 758.173 148.626C773.431 148.626 783.76 159.793 783.76 165.02V167.633H807V165.02C807 140.548 780.474 126.292 758.173 126.292C734.229 126.292 709.346 140.31 709.346 165.02C709.346 211.35 783.76 190.442 783.76 208.736C783.76 215.864 776.014 225.367 758.173 225.367C741.506 225.367 732.586 214.438 732.586 208.736V206.598Z" fill="white"/>
<path d="M275.221 261.518C307.13 275.914 342.25 289.154 379.479 300.455C543.537 350.259 668.981 332.623 681.178 274.556C682.523 268.149 682.222 261.385 680.4 254.353M512.761 122.472C485.002 110.64 455.076 99.7176 423.648 90.1769C259.59 40.3736 116.708 47.0724 104.511 105.139C103.915 107.975 102.602 114.266 102.112 116.741" stroke="url(#paint0_linear_1_3)" stroke-width="6.05" stroke-linecap="round"/>
<defs>
<linearGradient id="paint0_linear_1_3" x1="579.95" y1="329.387" x2="404.487" y2="-35.0452" gradientUnits="userSpaceOnUse">
<stop stop-color="#DC5C72"/>
<stop offset="1" stop-color="#9F4FDA"/>
</linearGradient>
</defs>
</svg>
