<svg xmlns="http://www.w3.org/2000/svg" viewBox="0 0 380.23 175.48">
  <defs>
    <style>
      .cls-1 {
        fill: #f32752;
        fill-rule: evenodd;
      }
      .cls-2 {
        isolation: isolate;
      }
      .cls-3 {
        fill: #32373b;
      }
    </style>
  </defs>
  <g id="Logo" data-name="Logo">
    <path
      class="cls-1"
      d="M173.27,90.34c-3.43,4.8-5.41,8.7-6.26,11.68a9.13,9.13,0,0,0-.35,4.49,3.92,3.92,0,0,0,1.56,1.74c2.75,1.72,5.23-.29,7-2.17,1.56-1.62,3-3.39,4.48-5.12,4.2-5,8.29-10.12,12.54-15.1a156.17,156.17,0,0,1,11.54-12.45,37.55,37.55,0,0,1,5.81-4.62,20.73,20.73,0,0,1,0,2.73,67.86,67.86,0,0,1-1.92,10.39,171.12,171.12,0,0,0-7.18,17.86c-1.09,3.4-2.88,9.16,1,11.5,2,1.19,4.17.64,6-.52a24.62,24.62,0,0,0,4-3.34,144.63,144.63,0,0,0,11.09-13l.06-.07.05-.07a67.33,67.33,0,0,1,5.7-7.12,62.53,62.53,0,0,1,.85,7.23A9.6,9.6,0,0,0,231,100a7,7,0,0,0,1.33,1.33c2.69,2,6.08,1.66,9.14.59q6.47-2.86,16-12.58C224.57,111,242.19,81.87,231,78.45c-3-.93-5.79.85-7.89,2.86a57.64,57.64,0,0,0-6.79,8.32c-1.1,1.39-4,5.11-6.93,8.46,1.68-4.48,3.63-8.93,5.58-13.27l.14-.32.09-.33c1.11-4.45,2.31-9.74,2.32-14.34,0-3.34-.75-7.14-4.09-8.73-4.75-2.26-10.3,2.32-13.62,5.29A145.05,145.05,0,0,0,186.72,80.3c5.93-10.86,12-21.65,18.08-32.42.84-4.56-3.21-6.84-7.13-3.79a333,333,0,0,1-23.81,32.47l-4.15,4.53h0l-1.59,1.8h0c-1.79,2-3.57,3.79-5.35,5.46-.15-.09-.69.94-.84.85-6.33,5.75-10.23,13.33-26.69,12a46.26,46.26,0,0,1-5.64-.58A27.17,27.17,0,0,1,135.24,47a27.63,27.63,0,0,1,4.06.3,27.34,27.34,0,0,1,9.84,3.52c-.1-1.09-.15-2.2-.15-3.31a37.66,37.66,0,0,1,74.23-9A32.25,32.25,0,0,1,232.33,35a33.55,33.55,0,0,1,7-.74A32.81,32.81,0,0,1,272.13,67a32.15,32.15,0,0,1-.22,3.8,32.61,32.61,0,0,1-2.83,10q-7.36,18-30,28.68-3.71,1.74-7.81,3.28c26-2.62,45.45-14,50.29-40.79a44,44,0,0,0,.29-5,42.53,42.53,0,0,0-53-41.18,47.36,47.36,0,0,0-88.52,11.78,36.86,36.86,0,0,0-14.48,72.15c19.73,5.18,33.12-3.78,45.54-17.47l1.78-2,.1.08Z"
    />
    <g class="cls-2">
      <path
        class="cls-3"
        d="M15.77,165.9h-.19l-12-17.55v26.57H0V142.06H3.76l12,17.93,12-17.93h3.76v32.86H27.74V148.3Z"
      />
      <path class="cls-3" d="M65.86,142.06v32.86H62.15V142.06Z" />
      <path
        class="cls-3"
        d="M120.73,142.06h3.62v32.86h-3L100.17,148v26.95H96.56V142.06H100l20.7,26.33Z"
      />
      <path
        class="cls-3"
        d="M178.47,145.44h-20v11.22h17.93V160H158.43v11.5h20.28v3.38h-24V142.06h23.75Z"
      />
      <path class="cls-3" d="M211.28,142.06v32.86h-3.7V142.06Z" />
      <path
        class="cls-3"
        d="M264.61,174.92l-9.53-12.77h-9.39v12.77H242V142.06h14.13c7.23,0,11.88,3.89,11.88,9.81,0,5.49-3.76,8.68-8.92,9.62l10.09,13.43Zm-8.78-29.44H245.69v13.33h10.09c4.93,0,8.45-2.53,8.45-6.8C264.23,147.93,261.13,145.48,255.83,145.48Z"
      />
      <path
        class="cls-3"
        d="M312.25,175.48c-10,0-16.71-7.84-16.71-16.95s6.81-17,16.81-17,16.71,7.84,16.71,16.95S322.25,175.48,312.25,175.48Zm0-30.56c-7.51,0-12.86,6-12.86,13.52s5.45,13.61,13,13.61,12.86-6,12.86-13.52S319.76,144.92,312.25,144.92Z"
      />
      <path
        class="cls-3"
        d="M369.52,156.7c7.33,1.6,10.71,4.27,10.71,9.34,0,5.68-4.7,9.34-11.22,9.34a19.25,19.25,0,0,1-13.43-5.25l2.3-2.72c3.43,3.09,6.71,4.64,11.27,4.64s7.32-2.3,7.32-5.63c0-3.1-1.64-4.84-8.54-6.29-7.56-1.64-11-4.08-11-9.53,0-5.26,4.55-9,10.79-9a17.16,17.16,0,0,1,11.55,4l-2.16,2.87a14.42,14.42,0,0,0-9.48-3.57c-4.27,0-7,2.35-7,5.35S362.29,155.15,369.52,156.7Z"
      />
    </g>
  </g>
</svg>
