<?xml version="1.0" encoding="utf-8"?>
<!-- Generator: Adobe Illustrator 24.0.2, SVG Export Plug-In . SVG Version: 6.00 Build 0)  -->
<svg version="1.1" id="Layer_1" xmlns="http://www.w3.org/2000/svg" xmlns:xlink="http://www.w3.org/1999/xlink" x="0px" y="0px"
	 viewBox="0 0 380.2 175.5" style="enable-background:new 0 0 380.2 175.5;" xml:space="preserve">
<style type="text/css">
	.st0{fill-rule:evenodd;clip-rule:evenodd;fill:#F43F5E;}
	.st1{fill:#FFFFFF;}
</style>
<g id="Logo">
	<path class="st0" d="M173.3,90.3c-3.4,4.8-5.4,8.7-6.3,11.7c-0.5,1.4-0.6,3-0.4,4.5c0.3,0.7,0.9,1.3,1.6,1.7c2.8,1.7,5.2-0.3,7-2.2
		c1.6-1.6,3-3.4,4.5-5.1c4.2-5,8.3-10.1,12.5-15.1c3.6-4.4,7.5-8.5,11.5-12.4c1.8-1.7,3.7-3.3,5.8-4.6c0.1,0.9,0.1,1.8,0,2.7
		c-0.4,3.5-1,7-1.9,10.4c-2.7,5.8-5.1,11.8-7.2,17.9c-1.1,3.4-2.9,9.2,1,11.5c2,1.2,4.2,0.6,6-0.5c1.4-1,2.8-2.1,4-3.3
		c3.9-4.1,7.7-8.5,11.1-13l0.1-0.1l0.1-0.1c1.7-2.5,3.6-4.9,5.7-7.1c0.4,2.4,0.7,4.8,0.9,7.2c0,2,0.6,4,1.8,5.6
		c0.4,0.5,0.8,0.9,1.3,1.3c2.7,2,6.1,1.7,9.1,0.6c4.3-1.9,9.6-6.1,16-12.6c-32.9,21.7-15.3-7.5-26.5-10.9c-3-0.9-5.8,0.8-7.9,2.9
		c-2.5,2.6-4.8,5.3-6.8,8.3c-1.1,1.4-4,5.1-6.9,8.5c1.7-4.5,3.6-8.9,5.6-13.3l0.1-0.3l0.1-0.3c1.1-4.4,2.3-9.7,2.3-14.3
		c0-3.3-0.8-7.1-4.1-8.7c-4.8-2.3-10.3,2.3-13.6,5.3c-4.7,4.3-9,9-13.1,13.9c5.9-10.9,12-21.7,18.1-32.4c0.8-4.6-3.2-6.8-7.1-3.8
		c-7.3,11.3-15.2,22.1-23.8,32.5l-4.1,4.5l0,0l-1.6,1.8l0,0c-1.8,2-3.6,3.8-5.4,5.5c-0.1-0.1-0.7,0.9-0.8,0.8
		c-6.3,5.8-10.2,13.3-26.7,12c-1.9-0.1-3.8-0.3-5.6-0.6c-14.6-3.4-23.7-18-20.3-32.6c2.8-12.1,13.5-20.7,25.9-21
		c1.4,0,2.7,0.1,4.1,0.3c3.5,0.5,6.8,1.7,9.8,3.5c-0.1-1.1-0.1-2.2-0.1-3.3c0-20.8,16.9-37.7,37.7-37.7c17.3,0,32.4,11.8,36.6,28.7
		c2.8-1.6,5.9-2.8,9.1-3.5c2.3-0.5,4.6-0.7,7-0.7c18.1,0,32.8,14.7,32.8,32.7c0,1.3-0.1,2.5-0.2,3.8c-0.4,3.5-1.4,6.8-2.8,10
		c-4.9,12-14.9,21.6-30,28.7c-2.5,1.2-5.1,2.3-7.8,3.3c26-2.6,45.5-14,50.3-40.8c0.2-1.7,0.3-3.3,0.3-5c0-23.5-19.1-42.5-42.6-42.5
		c-3.5,0-7,0.4-10.4,1.3C217,2.5,188.4-6.7,165.1,5.2c-12.7,6.5-21.9,18.4-24.8,32.4c-20.2-2.8-38.8,11.3-41.6,31.4
		c-2.6,18.5,9.1,36,27.1,40.7c19.7,5.2,33.1-3.8,45.5-17.5L173.3,90.3L173.3,90.3L173.3,90.3z"/>
	<g>
		<path class="st1" d="M15.8,165.9h-0.2l-12-17.6v26.6H0v-32.9h3.8l12,17.9l12-17.9h3.8v32.9h-3.8v-26.6L15.8,165.9z"/>
		<path class="st1" d="M65.9,142.1v32.9h-3.7v-32.9H65.9z"/>
		<path class="st1" d="M120.7,142.1h3.6v32.9h-3L100.2,148v26.9h-3.6v-32.9h3.4l20.7,26.3L120.7,142.1z"/>
		<path class="st1" d="M178.5,145.4h-20v11.2h17.9v3.3h-18v11.5h20.3v3.4h-24v-32.8h23.8L178.5,145.4z"/>
		<path class="st1" d="M211.3,142.1v32.9h-3.7v-32.9H211.3z"/>
		<path class="st1" d="M264.6,174.9l-9.5-12.8h-9.4v12.8H242v-32.9h14.1c7.2,0,11.9,3.9,11.9,9.8c0,5.5-3.8,8.7-8.9,9.6l10.1,13.4
			L264.6,174.9z M255.8,145.5h-10.1v13.3h10.1c4.9,0,8.5-2.5,8.5-6.8C264.2,147.9,261.1,145.5,255.8,145.5L255.8,145.5z"/>
		<path class="st1" d="M312.2,175.5c-10,0-16.7-7.8-16.7-16.9s6.8-17,16.8-17s16.7,7.8,16.7,16.9S322.2,175.5,312.2,175.5z
			 M312.2,144.9c-7.5,0-12.9,6-12.9,13.5s5.5,13.6,13,13.6s12.9-6,12.9-13.5S319.8,144.9,312.2,144.9z"/>
		<path class="st1" d="M369.5,156.7c7.3,1.6,10.7,4.3,10.7,9.3c0,5.7-4.7,9.3-11.2,9.3c-5,0.1-9.8-1.8-13.4-5.2l2.3-2.7
			c3.4,3.1,6.7,4.6,11.3,4.6s7.3-2.3,7.3-5.6c0-3.1-1.6-4.8-8.5-6.3c-7.6-1.6-11-4.1-11-9.5c0-5.3,4.5-9,10.8-9
			c4.2-0.1,8.3,1.3,11.5,4l-2.2,2.9c-2.6-2.3-6-3.6-9.5-3.6c-4.3,0-7,2.4-7,5.4S362.3,155.1,369.5,156.7z"/>
	</g>
</g>
</svg>
