<?xml version="1.0" encoding="utf-8"?>
<!-- Generator: Adobe Illustrator 24.0.2, SVG Export Plug-In . SVG Version: 6.00 Build 0)  -->
<svg version="1.1" id="Logo" xmlns="http://www.w3.org/2000/svg" xmlns:xlink="http://www.w3.org/1999/xlink" x="0px" y="0px"
	 viewBox="0 0 799.5 135" style="enable-background:new 0 0 799.5 135;" xml:space="preserve">
<style type="text/css">
	.st0{fill-rule:evenodd;clip-rule:evenodd;fill:#F43F5E;}
	.st1{enable-background:new    ;}
	.st2{fill:#FFFFFF;}
</style>
<path class="st0" d="M88.5,101.1c-3.4,4.8-5.4,8.7-6.3,11.7c-0.5,1.4-0.6,3-0.3,4.5c0.3,0.7,0.9,1.3,1.6,1.7c2.8,1.7,5.2-0.3,7-2.2
	c1.6-1.6,3-3.4,4.5-5.1c4.2-5,8.3-10.1,12.5-15.1c3.6-4.4,7.5-8.5,11.5-12.4c1.8-1.7,3.7-3.3,5.8-4.6c0.1,0.9,0.1,1.8,0,2.7
	c-0.4,3.5-1,7-1.9,10.4c-2.7,5.8-5.1,11.8-7.2,17.9c-1.1,3.4-2.9,9.2,1,11.5c2,1.2,4.2,0.6,6-0.5c1.4-1,2.8-2.1,4-3.3
	c4-4.1,7.7-8.4,11.1-13l0.1-0.1V105c1.7-2.5,3.6-4.9,5.7-7.1c0.4,2.4,0.7,4.8,0.9,7.2c0,2,0.6,4,1.7,5.7c0.4,0.5,0.8,0.9,1.3,1.3
	c2.7,2,6.1,1.7,9.1,0.6c4.3-1.9,9.6-6.1,16-12.6c-32.9,21.6-15.3-7.5-26.4-10.9c-3-0.9-5.8,0.8-7.9,2.9c-2.5,2.6-4.8,5.3-6.8,8.3
	c-1.1,1.4-4,5.1-6.9,8.5c1.7-4.5,3.6-8.9,5.6-13.3l0.1-0.3l0.1-0.3c1.1-4.4,2.3-9.7,2.3-14.3c0-3.3-0.8-7.1-4.1-8.7
	c-4.8-2.3-10.3,2.3-13.6,5.3c-4.7,4.3-9.1,9-13.1,13.9c5.9-10.9,12-21.7,18.1-32.4c0.8-4.6-3.2-6.8-7.1-3.8
	c-7.3,11.1-15.2,22-23.8,32.3l-4.2,4.5l0,0c-0.5,0.6-1.1,1.2-1.6,1.8l0,0c-1.8,2-3.6,3.8-5.3,5.5c-0.2-0.1-0.7,0.9-0.8,0.8
	c-6.3,5.8-10.2,13.3-26.7,12c-1.9-0.1-3.8-0.3-5.6-0.6C30.2,108.1,21,93.5,24.3,78.9c2.8-12.3,13.6-21,26.2-21.2
	c1.4,0,2.7,0.1,4.1,0.3c3.5,0.5,6.8,1.7,9.8,3.5c-0.1-1.1-0.2-2.2-0.2-3.3c0-20.8,16.9-37.7,37.7-37.7c13.8,0,26.4,7.5,33,19.6
	c1.6,2.9,2.8,5.9,3.6,9.1c2.8-1.6,5.9-2.8,9.1-3.5c2.3-0.5,4.6-0.7,7-0.7c18.1,0,32.8,14.7,32.8,32.8c0,4.8-1,9.5-3,13.8
	c-4.9,12-14.9,21.6-30,28.7c-2.5,1.2-5.1,2.3-7.8,3.3c26-2.6,45.4-14,50.3-40.8c0.2-1.7,0.3-3.3,0.3-5c0-23.5-19.1-42.5-42.6-42.5
	c-3.5,0-7,0.5-10.4,1.3C132.3,13.3,103.7,4,80.4,15.8c-12.8,6.5-21.9,18.5-24.9,32.5C35.4,45.6,16.8,59.6,14,79.8
	c-2.6,18.5,9.1,36,27.1,40.7c19.7,5.2,33.1-3.8,45.5-17.5L88.5,101.1L88.5,101.1L88.5,101.1z"/>
<g class="st1">
	<path class="st2" d="M258,84.9h-0.3l-17.3-25.4V98h-5.2V50.4h5.4l17.4,26l17.3-25.9h5.4V98h-5.4V59.5L258,84.9z"/>
	<path class="st2" d="M330.5,50.4V98h-5.4V50.4H330.5z"/>
	<path class="st2" d="M409.8,50.4h5.2V98h-4.3L380,59v39h-5.2V50.4h5l29.9,38.1V50.4H409.8z"/>
	<path class="st2" d="M493.3,55.3h-29v16.2h25.9v4.9h-25.9V93h29.3v5H459V50.4h34.4v4.9H493.3z"/>
	<path class="st2" d="M540.8,50.4V98h-5.4V50.4H540.8z"/>
	<path class="st2" d="M617.9,98l-13.8-18.5h-13.6V98h-5.4V50.4h20.4c10.5,0,17.2,5.6,17.2,14.2c0,7.9-5.4,12.6-12.9,13.9L624.5,98
		H617.9z M605.2,55.4h-14.7v19.3h14.6c7.1,0,12.2-3.7,12.2-9.8C617.4,58.9,612.9,55.4,605.2,55.4z"/>
</g>
<g class="st1">
	<path class="st2" d="M686.8,98.8c-14.5,0-24.2-11.3-24.2-24.5s9.8-24.6,24.3-24.6s24.2,11.3,24.2,24.5S701.3,98.8,686.8,98.8z
		 M686.8,54.6c-10.9,0-18.6,8.7-18.6,19.6s7.9,19.7,18.7,19.7c10.9,0,18.6-8.7,18.6-19.6C705.6,63.4,697.7,54.6,686.8,54.6z"/>
</g>
<g class="st1">
	<path class="st2" d="M769.7,71.6c10.6,2.3,15.5,6.2,15.5,13.5c0,8.2-6.8,13.5-16.2,13.5c-7.5,0-13.7-2.5-19.4-7.6l3.3-3.9
		c5,4.5,9.7,6.7,16.3,6.7c6.4,0,10.6-3.3,10.6-8.1c0-4.5-2.4-7-12.4-9.1c-10.9-2.4-16-5.9-16-13.8c0-7.6,6.6-13,15.6-13
		c6.9,0,11.9,2,16.7,5.8l-3.1,4.1c-4.4-3.6-8.8-5.2-13.7-5.2c-6.2,0-10.1,3.4-10.1,7.7C756.8,66.9,759.2,69.4,769.7,71.6z"/>
</g>
</svg>
