<svg id="Layer_3" data-name="Layer 3" xmlns="http://www.w3.org/2000/svg" viewBox="0 0 256.35 283.17"><defs><style>.cls-1{fill:#5c5ca8;}</style></defs><title>terramate-logo-square-smaller</title><polygon class="cls-1" points="128.5 210.28 204.84 131.69 204.84 36.32 167.4 62.22 89.97 62.22 51.84 35.85 51.84 133.66 128.5 210.28"/><polygon class="cls-1" points="46.84 32.4 0 0 0 69.12 0 81.85 46.84 128.66 46.84 32.4"/><polygon class="cls-1" points="256.35 78.67 256.35 69.83 256.35 0.71 209.84 32.87 209.84 126.54 256.35 78.67"/><polygon class="cls-1" points="0 238.34 43.64 279.5 44.12 207.13 0 163.72 0 238.34"/><path class="cls-1" d="M300.69,464.14a2.49,2.49,0,0,1-1.42.72,2.59,2.59,0,0,1-.73.12,2.48,2.48,0,0,1-1.76-.73L270,437.49v66.23L298.7,532,325,505.19V439.12Z" transform="translate(-170.16 -248.78)"/><polygon class="cls-1" points="212.16 198.08 256.35 153.11 256.35 85.84 211.72 131.78 212.16 198.08"/><polygon class="cls-1" points="44.61 133.5 0 88.92 0 156.71 44.17 200.16 44.61 133.5"/><polygon class="cls-1" points="212.21 205.16 212.7 280.21 256.35 239.05 256.35 160.25 212.21 205.16"/></svg>