<?xml version="1.0" encoding="utf-8"?>
<!-- Generator: Adobe Illustrator 24.0.2, SVG Export Plug-In . SVG Version: 6.00 Build 0)  -->
<svg version="1.1" id="Layer_1" xmlns="http://www.w3.org/2000/svg" xmlns:xlink="http://www.w3.org/1999/xlink" x="0px" y="0px"
	 viewBox="0 0 167.9 77.2" style="enable-background:new 0 0 167.9 77.2;" xml:space="preserve">
<style type="text/css">
	.st0{enable-background:new    ;}
	.st1{fill:#FFFFFF;}
	.st2{fill:#5C5CA8;}
</style>
<g id="Layer_2_1_">
	<g id="Layer_1-2">
		<g class="st0">
			<path class="st1" d="M22.1,53.5v8.6h-4.9v-4.2h-2.7v14.3h2.7v4.4H5v-4.4h2.7V57.9H4.8v4.2H0v-8.6H22.1z"/>
		</g>
		<g class="st0">
			<path class="st1" d="M38.2,74.3c-2.4,2.1-5.1,2.9-8.5,2.9c-4.1,0-8.7-2.6-8.7-8.9c0-5.4,3.9-8.6,8.9-8.6c3.9,0,6.9,2,7.9,4.8
				c0.4,1.2,0.8,3.7,0.1,5.6H27.4c0.2,0.9,0.6,2.7,3.4,2.7c1.1,0,2.8-0.1,4.6-1.6L38.2,74.3z M27.5,66.8h5c0-1.3-0.3-2.6-2.4-2.6
				C28,64.1,27.6,65.9,27.5,66.8z"/>
			<path class="st1" d="M49.2,76.6h-9.3v-4.3h1.5v-7.9H40v-4.3h6.2l1,2.1c0.9-1.6,1.7-2.7,5.1-2.7v5.7c-3,0-4.7,0.8-4.7,3.7v3.4h1.7
				L49.2,76.6L49.2,76.6z"/>
			<path class="st1" d="M63.1,76.6h-9.3v-4.3h1.5v-7.9h-1.4v-4.3h6.2l1,2.1c0.9-1.6,1.7-2.7,5.1-2.7v5.7c-3,0-4.7,0.8-4.7,3.7v3.4
				h1.7L63.1,76.6L63.1,76.6z"/>
		</g>
		<g class="st0">
			<path class="st1" d="M67.7,61.5c1.3-0.8,4.2-2.3,7.2-2.3c4,0,8.9,1.5,8.9,6.8v6.4h2v4.2h-7.1l-0.8-1.5c-1.2,1.7-3.3,2.1-4.5,2.1
				c-3.1,0-6.5-1.7-6.5-5.5c0-3.7,3.1-6.1,6.9-6.1c1.9,0,3.1,1,3.3,1.2v-1.2c0-1.5-1.4-1.8-3.1-1.8c-1.9,0-3.7,0.8-4.9,1.5
				L67.7,61.5z M77.1,71.9v-1.3c-0.1-0.2-0.6-1-1.9-1s-1.9,0.7-1.9,1.7c0,0.9,0.8,1.6,1.7,1.6S76.9,72.4,77.1,71.9z"/>
			<path class="st1" d="M97.9,76.6h-9.8v-4.3h1.4v-7.8h-1.4v-4.4h6.2L95,62c0.5-0.6,2-2.4,4.1-2.4c3.3,0,4.4,1.6,4.9,2.4
				c1-1.2,2.6-2.4,4.9-2.4c5.3,0,6.2,3.9,6.2,7.9v4.6h1.6v4.5h-8.4v-8.1c0-1.6,0.3-4.1-1.3-4.1c-1.4,0-1.7,1-1.7,2.4v5.3h2v4.4h-8.5
				v-8.4c0-2.7-0.1-3.8-1.4-3.8c-1.1,0-1.5,0.6-1.5,2v5.9h2L97.9,76.6L97.9,76.6z"/>
		</g>
		<g class="st0">
			<path class="st1" d="M119.3,61.5c1.3-0.8,4.2-2.3,7.2-2.3c4,0,8.9,1.5,8.9,6.8v6.4h2v4.2h-7.1l-0.8-1.5c-1.2,1.7-3.3,2.1-4.5,2.1
				c-3.1,0-6.5-1.7-6.5-5.5c0-3.7,3.1-6.1,6.9-6.1c1.9,0,3.1,1,3.3,1.2v-1.2c0-1.5-1.4-1.8-3.1-1.8c-1.9,0-3.7,0.8-4.9,1.5
				L119.3,61.5z M128.7,71.9v-1.3c-0.1-0.2-0.6-1-1.9-1c-1.3,0-1.9,0.7-1.9,1.7c0,0.9,0.8,1.6,1.7,1.6S128.4,72.4,128.7,71.9z"/>
			<path class="st1" d="M138.7,60.1h1.8v-3l6.1-1.9v5h3.1v4.3h-3.2v5.9c0,1.1-0.2,2.6,1.1,2.6c0.4,0,1.5-0.3,2.1-0.6v4.2
				c-1,0.4-3.2,0.6-4,0.6c-5,0-5.1-2.7-5.2-6.9v-5.9h-1.8L138.7,60.1L138.7,60.1z"/>
			<path class="st1" d="M167.8,74.3c-2.4,2.1-5.1,2.9-8.5,2.9c-4.1,0-8.7-2.6-8.7-8.9c0-5.4,3.9-8.6,8.9-8.6c3.9,0,6.9,2,7.9,4.8
				c0.4,1.2,0.8,3.7,0.1,5.6h-10.4c0.2,0.9,0.6,2.7,3.4,2.7c1.1,0,2.8-0.1,4.6-1.6L167.8,74.3z M157.1,66.8h5c0-1.3-0.3-2.6-2.4-2.6
				C157.7,64.1,157.2,65.9,157.1,66.8z"/>
		</g>
		<path class="st2" d="M64.5,33.3v-9.6L57,16.2v9.7l0,0L64.5,33.3z"/>
		<polygon class="st2" points="57,28.8 57,41 64.5,48 64.5,41.5 64.5,36.2 		"/>
		<polygon class="st2" points="64.5,5.2 57,0 57,11.9 57,13.2 64.5,20.8 		"/>
		<polygon class="st2" points="79.1,35.4 91.3,22.8 91.3,6.7 85.7,10.6 72.3,10.6 66.6,6.6 66.6,22.8 		"/>
		<path class="st2" d="M79.9,37.5c-0.2,0.2-0.4,0.3-0.7,0.3H79c-0.3,0-0.5-0.1-0.7-0.3l-4.1-4.1v9.4l4.9,4.8l4.5-4.6v-9.4L79.9,37.5
			z"/>
		<polygon class="st2" points="93.4,33.2 100.9,25.5 100.9,15.8 93.4,23.6 		"/>
		<polygon class="st2" points="100.9,12.9 100.9,11.9 100.9,0 93.4,5.2 93.4,20.7 		"/>
		<polygon class="st2" points="93.4,36.1 93.4,38.7 93.4,48 100.9,41 100.9,28.5 		"/>
	</g>
</g>
</svg>
