<?xml version="1.0" encoding="utf-8"?>
<svg viewBox="0.5 0 167.882 77.2" xmlns="http://www.w3.org/2000/svg">
  <defs>
    <style type="text/css">
	.st0{enable-background:new    ;}
	.st1{fill:#001722;}
	.st2{fill:#5C5CA8;}
</style>
  </defs>
  <g id="Layer_2_1_">
    <g id="Layer_1-2">
      <g class="st0">
        <path class="st1" d="M22.6,53.5v8.6h-4.9v-4.2H15v14.3h2.7v4.4H5.5v-4.4h2.7V57.9H5.3v4.2H0.5v-8.6H22.6z"/>
      </g>
      <g class="st0">
        <path class="st1" d="M38.7,74.3c-2.4,2.1-5.1,2.9-8.5,2.9c-4.1,0-8.7-2.6-8.7-8.9c0-5.4,3.9-8.6,8.9-8.6c3.9,0,6.9,2,7.9,4.8 c0.4,1.2,0.8,3.7,0.1,5.6H27.9c0.2,0.9,0.6,2.7,3.4,2.7c1.1,0,2.8-0.1,4.6-1.6L38.7,74.3z M28,66.8h5c0-1.3-0.3-2.6-2.4-2.6 C28.5,64.1,28.1,65.9,28,66.8z"/>
        <path class="st1" d="M49.7,76.6h-9.3v-4.3h1.5v-7.9h-1.4v-4.3h6.2l1,2.1c0.9-1.6,1.7-2.7,5.1-2.7v5.7c-3,0-4.7,0.8-4.7,3.7v3.4 h1.7V76.6z"/>
        <path class="st1" d="M63.6,76.6h-9.3v-4.3h1.5v-7.9h-1.4v-4.3h6.2l1,2.1c0.9-1.6,1.7-2.7,5.1-2.7v5.7c-3,0-4.7,0.8-4.7,3.7v3.4 h1.7V76.6z"/>
      </g>
      <g class="st0">
        <path class="st1" d="M68.2,61.5c1.3-0.8,4.2-2.3,7.2-2.3c4,0,8.9,1.5,8.9,6.8v6.4h2v4.2h-7.1l-0.8-1.5c-1.2,1.7-3.3,2.1-4.5,2.1 c-3.1,0-6.5-1.7-6.5-5.5c0-3.7,3.1-6.1,6.9-6.1c1.9,0,3.1,1,3.3,1.2v-1.2c0-1.5-1.4-1.8-3.1-1.8c-1.9,0-3.7,0.8-4.9,1.5 L68.2,61.5z M77.6,71.9v-1.3c-0.1-0.2-0.6-1-1.9-1c-1.3,0-1.9,0.7-1.9,1.7c0,0.9,0.8,1.6,1.7,1.6S77.4,72.4,77.6,71.9z"/>
        <path class="st1" d="M98.4,76.6h-9.8v-4.3H90v-7.8h-1.4v-4.4h6.2l0.7,1.9c0.5-0.6,2-2.4,4.1-2.4c3.3,0,4.4,1.6,4.9,2.4 c1-1.2,2.6-2.4,4.9-2.4c5.3,0,6.2,3.9,6.2,7.9v4.6h1.6v4.5h-8.4v-8.1c0-1.6,0.3-4.1-1.3-4.1c-1.4,0-1.7,1-1.7,2.4v5.3h2v4.4h-8.5 v-8.4c0-2.7-0.1-3.8-1.4-3.8c-1.1,0-1.5,0.6-1.5,2v5.9h2V76.6z"/>
      </g>
      <g class="st0">
        <path class="st1" d="M119.8,61.5c1.3-0.8,4.2-2.3,7.2-2.3c4,0,8.9,1.5,8.9,6.8v6.4h2v4.2h-7.1l-0.8-1.5c-1.2,1.7-3.3,2.1-4.5,2.1 c-3.1,0-6.5-1.7-6.5-5.5c0-3.7,3.1-6.1,6.9-6.1c1.9,0,3.1,1,3.3,1.2v-1.2c0-1.5-1.4-1.8-3.1-1.8c-1.9,0-3.7,0.8-4.9,1.5 L119.8,61.5z M129.2,71.9v-1.3c-0.1-0.2-0.6-1-1.9-1c-1.3,0-1.9,0.7-1.9,1.7c0,0.9,0.8,1.6,1.7,1.6S128.9,72.4,129.2,71.9z"/>
        <path class="st1" d="M139.2,60.1h1.8v-3l6.1-1.9v5h3.1v4.3H147v5.9c0,1.1-0.2,2.6,1.1,2.6c0.4,0,1.5-0.3,2.1-0.6v4.2 c-1,0.4-3.2,0.6-4,0.6c-5,0-5.1-2.7-5.2-6.9v-5.9h-1.8V60.1z"/>
        <path class="st1" d="M168.3,74.3c-2.4,2.1-5.1,2.9-8.5,2.9c-4.1,0-8.7-2.6-8.7-8.9c0-5.4,3.9-8.6,8.9-8.6c3.9,0,6.9,2,7.9,4.8 c0.4,1.2,0.8,3.7,0.1,5.6h-10.4c0.2,0.9,0.6,2.7,3.4,2.7c1.1,0,2.8-0.1,4.6-1.6L168.3,74.3z M157.6,66.8h5c0-1.3-0.3-2.6-2.4-2.6 C158.2,64.1,157.7,65.9,157.6,66.8z"/>
      </g>
      <path class="st2" d="M65,33.3v-9.6l-7.5-7.5v9.7l0,0L65,33.3z"/>
      <polygon class="st2" points="57.5,28.8 57.5,41 65,48 65,41.5 65,36.2 &#9;&#9;"/>
      <polygon class="st2" points="65,5.2 57.5,0 57.5,11.9 57.5,13.2 65,20.8 &#9;&#9;"/>
      <polygon class="st2" points="79.6,35.4 91.8,22.8 91.8,6.7 86.2,10.6 72.8,10.6 67.1,6.6 67.1,22.8 &#9;&#9;"/>
      <path class="st2" d="M80.4,37.5c-0.2,0.2-0.4,0.3-0.7,0.3h-0.2c-0.3,0-0.5-0.1-0.7-0.3l-4.1-4.1v9.4l4.9,4.8l4.5-4.6v-9.4 L80.4,37.5z"/>
      <polygon class="st2" points="93.9,33.2 101.4,25.5 101.4,15.8 93.9,23.6 &#9;&#9;"/>
      <polygon class="st2" points="101.4,12.9 101.4,11.9 101.4,0 93.9,5.2 93.9,20.7 &#9;&#9;"/>
      <polygon class="st2" points="93.9,36.1 93.9,38.7 93.9,48 101.4,41 101.4,28.5 &#9;&#9;"/>
    </g>
  </g>
</svg>